<svg width="20" height="32" viewBox="0 0 20 32" fill="none" xmlns="http://www.w3.org/2000/svg">
<path fill-rule="evenodd" clip-rule="evenodd" d="M2.00005 7.99944C2.00019 6.45986 2.44457 4.95302 3.27986 3.65973C4.11516 2.36644 5.30588 1.34163 6.70916 0.708288C8.11244 0.0749434 9.66867 -0.14004 11.1911 0.0891341C12.7135 0.318308 14.1375 0.981905 15.2921 2.0003C16.4468 3.01869 17.283 4.34862 17.7006 5.8305C18.1181 7.31239 18.0992 8.88327 17.6461 10.3547C17.193 11.8261 16.325 13.1355 15.1461 14.1258C13.9673 15.1161 12.5278 15.7452 11.0003 15.9376V26.9999C11.0003 27.2651 10.8949 27.5195 10.7074 27.707C10.5198 27.8946 10.2655 27.9999 10.0002 27.9999C9.73501 27.9999 9.48065 27.8946 9.29311 27.707C9.10557 27.5195 9.00021 27.2651 9.00021 26.9999V15.9396C7.06609 15.696 5.2875 14.7545 3.99852 13.292C2.70955 11.8296 1.99889 9.94685 2.00005 7.99744V7.99944ZM6.98616 25.1478C7.02953 25.4093 6.96731 25.6774 6.81318 25.893C6.65904 26.1086 6.4256 26.2543 6.16414 26.2979C4.74011 26.5339 3.60408 26.8879 2.85407 27.2839C2.57855 27.4164 2.32815 27.5957 2.11405 27.8139C2.06565 27.8666 2.02704 27.9276 2.00005 27.9939V27.9999L2.00405 28.0159C2.01192 28.0392 2.02267 28.0613 2.03605 28.0819C2.11499 28.1977 2.21306 28.2991 2.32605 28.3819C2.65606 28.6419 3.19607 28.9219 3.95209 29.1719C5.45413 29.6719 7.59218 30 10.0002 30C12.4083 30 14.5463 29.6739 16.0484 29.1719C16.8044 28.9199 17.3444 28.6419 17.6744 28.3819C17.7881 28.2992 17.8868 28.1978 17.9664 28.0819C17.9791 28.0612 17.9892 28.0391 17.9964 28.0159L18.0004 27.9999V27.9919C17.9734 27.9256 17.9348 27.8647 17.8864 27.8119C17.6722 27.5944 17.4218 27.4157 17.1464 27.2839C16.3944 26.8879 15.2604 26.5339 13.8363 26.2979C13.7037 26.2799 13.576 26.2355 13.4608 26.1672C13.3457 26.099 13.2454 26.0083 13.1659 25.9006C13.0864 25.7929 13.0294 25.6703 12.9982 25.5402C12.9669 25.41 12.9622 25.2749 12.9841 25.1428C13.0061 25.0108 13.0543 24.8845 13.126 24.7714C13.1977 24.6584 13.2913 24.5609 13.4014 24.4847C13.5115 24.4085 13.6357 24.3552 13.7668 24.3279C13.8978 24.3006 14.033 24.2999 14.1643 24.3258C15.7044 24.5798 17.0684 24.9818 18.0784 25.5139C19.0004 25.9999 20.0005 26.7999 20.0005 27.9999C20.0005 28.8519 19.4805 29.5039 18.9124 29.954C18.3324 30.41 17.5524 30.78 16.6804 31.07C14.9243 31.656 12.5623 32 10.0002 32C7.43817 32 5.07612 31.656 3.32008 31.07C2.44806 30.78 1.66804 30.41 1.08802 29.954C0.520012 29.5039 0 28.8519 0 27.9999C0 26.8019 1.00002 25.9999 1.92204 25.5139C2.93207 24.9818 4.2961 24.5798 5.83614 24.3258C6.09763 24.2825 6.36564 24.3447 6.58129 24.4988C6.79693 24.6529 6.94255 24.8864 6.98616 25.1478Z" fill="url(#paint0_linear_62_3)"/>
<defs>
<linearGradient id="paint0_linear_62_3" x1="-5.84102e-08" y1="10.3704" x2="20.848" y2="11.8627" gradientUnits="userSpaceOnUse">
<stop offset="0.0677083" stop-color="#FFC01A"/>
<stop offset="0.557292" stop-color="#FF39BE"/>
<stop offset="1" stop-color="#BB59FC"/>
</linearGradient>
</defs>
</svg>
